<svg width="6" height="156" viewBox="0 0 6 156" fill="none" xmlns="http://www.w3.org/2000/svg">
<path d="M0.333333 3C0.333333 4.47276 1.52724 5.66667 3 5.66667C4.47276 5.66667 5.66667 4.47276 5.66667 3C5.66667 1.52724 4.47276 0.333333 3 0.333333C1.52724 0.333333 0.333333 1.52724 0.333333 3ZM0.333333 153C0.333333 154.473 1.52724 155.667 3 155.667C4.47276 155.667 5.66667 154.473 5.66667 153C5.66667 151.527 4.47276 150.333 3 150.333C1.52724 150.333 0.333333 151.527 0.333333 153ZM2.5 3V153H3.5V3H2.5Z" fill="black"/>
</svg>
